# xmcd CD database file
#
# Track frame offsets:
#	150
#	28172
#	70474
#	102240
#	131091
#	158686
#	189310
#	218567
#	242242
#	287801
#
# Disc length: 4513 seconds
#
# Revision: 0
# Processed by: cddbd v1.5.2PL0 Copyright (c) Steve Scherf et al.
# Submitted via: CDex 1.70beta2
#
DISCID=91119f0a
DTITLE=Sonny Rollins - Four Classic Albums CD 2
DYEAR=1956
DGENRE=Jazz
TTITLE0=Wail March
TTITLE1=Misteroso
TTITLE2=Reflections
TTITLE3=You Stepped Out Of a Dream
TTITLE4=Poor Butterfly
TTITLE5=St. Thomas
TTITLE6=You Don't Know What Love Is
TTITLE7=Strode Rode
TTITLE8=Moritat
TTITLE9=Blue Seven
EXTD=YEAR: 1956
EXTT0=
EXTT1=
EXTT2=
EXTT3=
EXTT4=
EXTT5=
EXTT6=
EXTT7=
EXTT8=
EXTT9=
PLAYORDER=
